<svg width="35" height="43" viewBox="0 0 35 43" fill="none" xmlns="http://www.w3.org/2000/svg">
<path d="M11.3459 42.9822C11.903 42.9315 12.5109 42.8303 13.1187 42.6784C13.4226 42.5771 13.8784 42.3746 14.6382 42.0709C15.2967 41.8177 15.8032 41.6152 16.259 41.514C16.9175 41.3621 17.6266 41.2608 18.3357 41.2608C19.0449 41.2608 19.754 41.3621 20.4124 41.514C20.8177 41.6152 21.3748 41.8177 22.0333 42.1215C22.6917 42.4253 23.1983 42.5771 23.5528 42.6784C24.1606 42.8303 24.7685 42.9315 25.4269 42.9315C26.3386 42.9315 27.1997 42.6784 28.0608 42.1721C28.7699 41.7165 29.4284 41.0583 30.1881 40.1977C30.644 39.6408 31.2518 38.8308 32.0622 37.6663C32.9233 36.4007 33.6324 35.0338 34.2909 33.5149C34.5441 32.9581 34.7974 32.2999 35 31.5405C34.5441 31.3886 34.0376 31.0849 33.4805 30.7305C32.3661 29.9711 31.4038 29.0598 30.7453 27.9966C29.7829 26.5285 29.2764 24.8071 29.2258 22.8833C29.2258 21.3139 29.5803 19.7445 30.3907 18.3775C30.9479 17.4156 31.7077 16.5043 32.6194 15.6943C33.0246 15.3399 33.4805 14.9855 33.9363 14.7324C32.822 13.1123 31.3531 11.9479 29.5297 11.2392C28.466 10.8341 27.301 10.581 26.0347 10.4797C25.3763 10.4291 24.6671 10.4291 23.958 10.581C23.4009 10.6823 22.7424 10.8341 22.0839 11.0366C21.6281 11.1885 21.1216 11.391 20.4124 11.6948C19.7033 11.9986 19.2475 12.1504 18.9436 12.2517C18.4877 12.4036 18.0825 12.5048 17.7786 12.5048C17.424 12.5048 16.9175 12.4036 16.3097 12.2011C16.1577 12.1504 15.6006 11.8973 14.5876 11.5429C13.8278 11.2392 13.22 11.0366 12.6628 10.8848C11.9537 10.7329 11.2952 10.6316 10.6368 10.6316C8.81331 10.6823 7.14182 11.1379 5.52098 12.1504C3.9508 13.1123 2.68451 14.4286 1.77279 16.0487C0.607815 17.9219 0 20.4026 0 23.1871C0 25.7184 0.455861 28.3004 1.31693 30.9836C2.12735 33.4643 3.19103 35.6413 4.50796 37.5145C5.26773 38.6283 5.87554 39.4889 6.43271 40.1471C7.19247 41.0583 7.95224 41.7165 8.66136 42.2228C9.52243 42.729 10.3835 42.9822 11.3459 42.9822ZM23.8061 6.83462C24.5658 5.87271 25.1737 4.86017 25.5789 3.69576C26.0347 2.43009 26.136 1.21504 26.0347 0C24.9711 0.0506268 23.8061 0.354388 22.6411 0.961909C21.4761 1.56943 20.5137 2.32883 19.7033 3.24012C18.9436 4.1514 18.3357 5.16393 17.9305 6.27772C17.424 7.59402 17.2721 8.75844 17.424 9.92285C18.589 10.0241 19.754 9.77097 20.9696 9.16345C22.0839 8.5053 22.9957 7.79653 23.8061 6.83462Z" fill="#0F2944"/>
</svg>
