<svg width="32" height="38" viewBox="0 0 32 38" fill="none" xmlns="http://www.w3.org/2000/svg">
<path d="M26.6981 20.0809C26.6812 16.9674 28.0895 14.6174 30.94 12.8867C29.3451 10.6046 26.9357 9.34902 23.7543 9.10299C20.7426 8.86545 17.4509 10.8591 16.2463 10.8591C14.9737 10.8591 12.0553 9.18783 9.76472 9.18783C5.03082 9.26418 0 12.9631 0 20.4881C0 22.7108 0.407217 25.0071 1.22165 27.3768C2.30756 30.4904 6.22702 38.1257 10.3162 37.9984C12.454 37.9475 13.9641 36.4798 16.7468 36.4798C19.4446 36.4798 20.8444 37.9984 23.2283 37.9984C27.3514 37.939 30.8976 30.9994 31.9326 27.8774C26.4012 25.2729 26.6981 20.2421 26.6981 20.0809ZM21.8964 6.15067C24.2124 3.40196 24.0003 0.89927 23.9325 0C21.8879 0.118772 19.521 1.39132 18.172 2.9608C16.6874 4.64057 15.8136 6.71908 16.0002 9.06057C18.2145 9.23025 20.2336 8.09343 21.8964 6.15067Z" fill="white"/>
</svg>
