<svg width="801" height="927" viewBox="0 0 801 927" fill="none" xmlns="http://www.w3.org/2000/svg">
<g style="mix-blend-mode:screen">
<path d="M-6.3449 921.747L117.02 839.14C122.564 835.427 125.891 829.195 125.892 822.523L125.91 660.27C125.91 658.763 126.081 657.261 126.418 655.793L145.751 571.654C147.87 562.434 143.24 552.992 134.654 549.021L100.422 533.193C83.4087 525.326 85.593 500.478 103.718 495.7L209.62 467.782C219.574 465.158 225.91 455.407 224.265 445.245L212.262 371.14C209.815 356.03 224.556 343.884 238.919 349.176L350.451 390.266C356.855 392.625 364.019 391.556 369.455 387.431L453.044 324.003C460.104 318.646 462.796 309.283 459.661 300.994L424.904 209.108" stroke="url(#paint0_linear_175_28)" stroke-width="0.75" stroke-miterlimit="10"/>
</g>
<g style="mix-blend-mode:screen">
<path d="M341.121 270.312L360.864 394.719" stroke="url(#paint1_linear_175_28)" stroke-width="0.75" stroke-miterlimit="10"/>
</g>
<g style="mix-blend-mode:screen">
<path d="M260.34 852.258L-9.19308 915.206" stroke="url(#paint2_linear_175_28)" stroke-width="0.75" stroke-miterlimit="10"/>
</g>
<g style="mix-blend-mode:screen">
<path d="M125.891 833.199L64.0923 762.414C57.7527 755.153 57.4948 744.402 63.4789 736.845L110.079 677.995C118.134 667.822 133.594 667.895 141.554 678.142L182.529 730.896C187.995 737.934 188.146 747.738 182.9 754.941L125.891 833.199ZM125.891 833.199L223.195 846.993C239.04 849.239 245.96 868.26 235.264 880.163L194.068 926.005" stroke="url(#paint3_linear_175_28)" stroke-width="0.75" stroke-miterlimit="10"/>
</g>
<g style="mix-blend-mode:screen">
<path d="M19.9212 842.536L13.7488 786.418C12.8809 778.528 16.7613 770.871 23.6375 766.906L32.3965 761.855C43.2051 755.622 45.7305 741.122 37.6656 731.602L-5.5973 680.531C-17.1602 666.882 -6.35779 646.079 11.4588 647.685L125.91 658.002L219.28 661.868C236.057 662.563 244.562 682.372 233.511 695.013L214.568 716.685C204.433 728.28 210.654 746.498 225.764 749.471L353.309 774.572C367.058 777.278 379.256 765.372 376.882 751.561L358.162 642.614C355.6 627.702 369.884 615.455 384.23 620.265L521.267 666.207C524.243 667.204 527.411 667.488 530.516 667.034L599.913 656.893C607.956 655.718 614.487 649.792 616.437 641.901L631.471 581.054C634.059 570.582 644.484 564.048 655.037 566.286L714.853 578.971" stroke="url(#paint4_linear_175_28)" stroke-width="0.75" stroke-miterlimit="10"/>
</g>
<g style="mix-blend-mode:screen">
<path d="M464.948 314.97L367.625 432.794C364.944 436.04 363.355 440.05 363.086 444.252L355.639 560.522C354.491 578.431 375.688 588.671 389.005 576.641L441.461 529.254C450.639 520.962 450.166 506.411 440.469 498.733L363.5 437.788" stroke="url(#paint5_linear_175_28)" stroke-width="0.75" stroke-miterlimit="10"/>
</g>
<g style="mix-blend-mode:screen">
<path d="M636.112 562.273L546.558 647.876C536.49 657.499 519.915 654.144 514.384 641.363L462.857 522.314C460.423 516.69 460.701 510.26 463.613 504.867L493.954 448.679C501.861 434.036 489.468 416.704 473.054 419.451L381.642 434.751C371.938 436.376 362.959 429.25 362.337 419.43V419.43C361.58 407.472 348.787 400.231 338.145 405.738L283.812 433.848C266.828 442.636 271.546 468.114 290.551 470.237V470.237" stroke="url(#paint6_linear_175_28)" stroke-width="0.75" stroke-miterlimit="10"/>
</g>
<g style="mix-blend-mode:screen">
<path d="M422.498 686.988L395.388 749.064C389.289 763.031 400.428 778.416 415.601 776.979L417.78 776.773C429.566 775.658 437.809 764.606 435.518 752.992L422.498 686.988ZM422.498 686.988L486.542 719.803C501.739 727.589 500.818 749.61 485.025 756.101L474.792 760.307C461.322 765.843 460.795 784.724 473.934 791.003V791.003" stroke="url(#paint7_linear_175_28)" stroke-width="0.75" stroke-miterlimit="10"/>
</g>
<g style="mix-blend-mode:screen">
<path d="M525.177 739.599L563.494 747.815C568.679 748.927 574.092 747.934 578.545 745.056L619.744 718.426C633.744 709.377 650.977 723.98 644.348 739.275V739.275C641.683 745.423 635.628 749.407 628.928 749.422L571.591 749.551" stroke="url(#paint8_linear_175_28)" stroke-width="0.75" stroke-miterlimit="10"/>
</g>
<g style="mix-blend-mode:screen">
<path d="M252.907 787.307C239.905 777.839 223.377 793.253 231.915 806.883V806.883C239.816 819.495 259.311 813.611 258.915 798.734V798.734C258.794 794.199 256.575 789.977 252.907 787.307V787.307Z" stroke="url(#paint9_linear_175_28)" stroke-width="0.75" stroke-miterlimit="10"/>
</g>
<g style="mix-blend-mode:screen">
<path d="M206.788 337.338L233.631 257.05" stroke="url(#paint10_linear_175_28)" stroke-width="0.75" stroke-miterlimit="10"/>
</g>
<g style="mix-blend-mode:screen">
<path d="M618.813 452.665L642.943 414.42" stroke="url(#paint11_linear_175_28)" stroke-width="0.75" stroke-miterlimit="10"/>
</g>
<g style="mix-blend-mode:screen">
<path d="M66.1809 421.653L73.0938 369.661C75.9824 347.937 46.8622 338.055 35.9328 357.051L5.06809 410.697C-4.75488 427.77 13.4168 447.264 31.1369 438.663L66.1809 421.653ZM66.1809 421.653L55.0028 482.512C52.5334 495.957 37.6048 503.018 25.6454 496.397L-14.6389 474.097C-22.2224 469.899 -26.2385 461.293 -24.5854 452.785L-2.39734 338.578C-1.41146 333.503 1.50096 329.008 5.72916 326.034L68.9895 281.537C78.4407 274.889 80.3082 261.638 73.0626 252.637L18.1289 184.395C5.49353 168.698 -19.7993 179.426 -17.2956 199.421L-0.860783 330.669" stroke="url(#paint12_linear_175_28)" stroke-width="0.75" stroke-miterlimit="10"/>
</g>
<g style="mix-blend-mode:screen">
<path d="M149.386 555.834L173.867 615.225C175.724 619.732 179.164 623.405 183.539 625.554L225.943 646.385C240.573 653.572 257.194 641.18 254.483 625.108L234.368 505.858C231.531 489.038 210.292 483.261 199.327 496.327L149.386 555.834ZM149.386 555.834L254.192 657.044C258.487 661.192 264.411 663.204 270.344 662.529L288.64 660.45C302.157 658.914 310.229 644.623 304.567 632.254L227.165 463.157" stroke="url(#paint13_linear_175_28)" stroke-width="0.75" stroke-miterlimit="10"/>
</g>
<g style="mix-blend-mode:screen">
<path d="M176.749 622.219L125.91 658.003" stroke="url(#paint14_linear_175_28)" stroke-width="0.75" stroke-miterlimit="10"/>
</g>
<g style="mix-blend-mode:screen">
<path d="M48.3044 603.34L15.1038 574.54C6.29766 566.901 5.86485 553.38 14.1645 545.193L15.0586 544.311C27.82 531.724 49.4212 540.986 49.1002 558.908L48.3044 603.34ZM48.3044 603.34L59.5947 611.292C76.6736 623.322 98.4389 604.409 88.9098 585.818L56.2963 522.193C52.4956 514.778 53.69 505.784 59.294 499.618L204.256 340.123C205.929 338.283 207.93 336.77 210.158 335.664L333.205 274.528C338.067 272.112 343.702 271.777 348.816 273.599L457.33 312.257C462.217 313.997 466.235 317.568 468.539 322.216L505.507 396.811C510.001 405.879 520.56 410.16 530.1 406.784L578.389 389.692C589.213 385.861 601.032 391.909 604.257 402.929L607.528 414.106C612.166 429.955 596.686 444.278 581.244 438.425L513.382 412.701" stroke="url(#paint15_linear_175_28)" stroke-width="0.75" stroke-miterlimit="10"/>
</g>
<g style="mix-blend-mode:screen">
<path d="M-24.2216 510.663L-1.22649 560.375L26.2714 619.193" stroke="url(#paint16_linear_175_28)" stroke-width="0.75" stroke-miterlimit="10"/>
</g>
<g style="mix-blend-mode:screen">
<path d="M86.4435 269.26L118.021 378.662" stroke="url(#paint17_linear_175_28)" stroke-width="0.75" stroke-miterlimit="10"/>
</g>
<g style="mix-blend-mode:screen">
<path d="M258.723 791.542L381.8 780.179" stroke="url(#paint18_linear_175_28)" stroke-width="0.75" stroke-miterlimit="10"/>
</g>
<defs>
<linearGradient id="paint0_linear_175_28" x1="229.776" y1="238.822" x2="229.776" y2="882.241" gradientUnits="userSpaceOnUse">
<stop stop-color="#ED3C29"/>
<stop offset="1" stop-color="#FA610A"/>
</linearGradient>
<linearGradient id="paint1_linear_175_28" x1="351.012" y1="275.499" x2="351.012" y2="387.823" gradientUnits="userSpaceOnUse">
<stop stop-color="#ED3C29"/>
<stop offset="1" stop-color="#FA610A"/>
</linearGradient>
<linearGradient id="paint2_linear_175_28" x1="125.845" y1="854.883" x2="125.845" y2="911.716" gradientUnits="userSpaceOnUse">
<stop stop-color="#ED3C29"/>
<stop offset="1" stop-color="#FA610A"/>
</linearGradient>
<linearGradient id="paint3_linear_175_28" x1="156.955" y1="669.177" x2="156.955" y2="911.148" gradientUnits="userSpaceOnUse">
<stop stop-color="#ED3C29"/>
<stop offset="1" stop-color="#FA610A"/>
</linearGradient>
<linearGradient id="paint4_linear_175_28" x1="339.616" y1="573.958" x2="339.616" y2="827" gradientUnits="userSpaceOnUse">
<stop stop-color="#ED3C29"/>
<stop offset="1" stop-color="#FA610A"/>
</linearGradient>
<linearGradient id="paint5_linear_175_28" x1="408.834" y1="327.256" x2="408.834" y2="593.29" gradientUnits="userSpaceOnUse">
<stop stop-color="#ED3C29"/>
<stop offset="1" stop-color="#FA610A"/>
</linearGradient>
<linearGradient id="paint6_linear_175_28" x1="432.05" y1="405.463" x2="432.05" y2="652.553" gradientUnits="userSpaceOnUse">
<stop stop-color="#ED3C29"/>
<stop offset="1" stop-color="#FA610A"/>
</linearGradient>
<linearGradient id="paint7_linear_175_28" x1="453.633" y1="691.325" x2="453.633" y2="785.237" gradientUnits="userSpaceOnUse">
<stop stop-color="#ED3C29"/>
<stop offset="1" stop-color="#FA610A"/>
</linearGradient>
<linearGradient id="paint8_linear_175_28" x1="595.969" y1="690.777" x2="595.969" y2="746.151" gradientUnits="userSpaceOnUse">
<stop stop-color="#ED3C29"/>
<stop offset="1" stop-color="#FA610A"/>
</linearGradient>
<linearGradient id="paint9_linear_175_28" x1="226.118" y1="747.344" x2="226.118" y2="846.189" gradientUnits="userSpaceOnUse">
<stop stop-color="#ED3C29"/>
<stop offset="1" stop-color="#FA610A"/>
</linearGradient>
<linearGradient id="paint10_linear_175_28" x1="220.236" y1="260.398" x2="220.236" y2="332.887" gradientUnits="userSpaceOnUse">
<stop stop-color="#ED3C29"/>
<stop offset="1" stop-color="#FA610A"/>
</linearGradient>
<linearGradient id="paint11_linear_175_28" x1="630.902" y1="416.014" x2="630.902" y2="450.545" gradientUnits="userSpaceOnUse">
<stop stop-color="#ED3C29"/>
<stop offset="1" stop-color="#FA610A"/>
</linearGradient>
<linearGradient id="paint12_linear_175_28" x1="29.6573" y1="145.372" x2="29.6573" y2="488.782" gradientUnits="userSpaceOnUse">
<stop stop-color="#ED3C29"/>
<stop offset="1" stop-color="#FA610A"/>
</linearGradient>
<linearGradient id="paint13_linear_175_28" x1="232.885" y1="471.514" x2="232.885" y2="652.483" gradientUnits="userSpaceOnUse">
<stop stop-color="#ED3C29"/>
<stop offset="1" stop-color="#FA610A"/>
</linearGradient>
<linearGradient id="paint14_linear_175_28" x1="151.381" y1="623.711" x2="151.381" y2="656.019" gradientUnits="userSpaceOnUse">
<stop stop-color="#ED3C29"/>
<stop offset="1" stop-color="#FA610A"/>
</linearGradient>
<linearGradient id="paint15_linear_175_28" x1="309.417" y1="286.894" x2="309.417" y2="636.535" gradientUnits="userSpaceOnUse">
<stop stop-color="#ED3C29"/>
<stop offset="1" stop-color="#FA610A"/>
</linearGradient>
<linearGradient id="paint16_linear_175_28" x1="1.07574" y1="515.188" x2="1.07574" y2="613.176" gradientUnits="userSpaceOnUse">
<stop stop-color="#ED3C29"/>
<stop offset="1" stop-color="#FA610A"/>
</linearGradient>
<linearGradient id="paint17_linear_175_28" x1="102.264" y1="273.821" x2="102.264" y2="372.597" gradientUnits="userSpaceOnUse">
<stop stop-color="#ED3C29"/>
<stop offset="1" stop-color="#FA610A"/>
</linearGradient>
<linearGradient id="paint18_linear_175_28" x1="320.385" y1="780.652" x2="320.385" y2="790.912" gradientUnits="userSpaceOnUse">
<stop stop-color="#ED3C29"/>
<stop offset="1" stop-color="#FA610A"/>
</linearGradient>
</defs>
</svg>
