<svg width="573" height="494" viewBox="0 0 573 494" fill="none" xmlns="http://www.w3.org/2000/svg">
<g opacity="0.5">
<mask id="mask0_159_278" style="mask-type:alpha" maskUnits="userSpaceOnUse" x="0" y="0" width="573" height="494">
<rect x="0.5" y="0.5" width="572" height="492.77" rx="19.5" fill="#D9D9D9" stroke="url(#paint0_linear_159_278)"/>
</mask>
<g mask="url(#mask0_159_278)">
<g style="mix-blend-mode:screen">
<path d="M590.657 -14.6292L504.451 28.6742C497.695 32.0682 493.43 38.9822 493.429 46.5432L493.417 127.849C493.417 129.833 493.121 131.807 492.54 133.704L480.848 171.876C478.229 180.425 482.844 189.514 491.291 192.444V192.444C507.309 198.001 505.701 221.159 489.069 224.448L438.933 234.363C427.964 236.533 420.904 247.274 423.264 258.204L426.978 275.407C430.15 290.099 416.589 302.909 402.101 298.905L328.771 278.639C323.647 277.223 318.17 277.905 313.549 280.535L260.666 310.638C251.407 315.909 247.905 327.512 252.702 337.024L273.583 378.435" stroke="url(#paint1_linear_159_278)" stroke-width="0.75" stroke-miterlimit="10"/>
</g>
<g style="mix-blend-mode:screen">
<path d="M335.184 344.677L320.668 276.059" stroke="url(#paint2_linear_159_278)" stroke-width="0.75" stroke-miterlimit="10"/>
</g>
<g style="mix-blend-mode:screen">
<path d="M394.578 23.6982L592.751 -11.0214" stroke="url(#paint3_linear_159_278)" stroke-width="0.75" stroke-miterlimit="10"/>
</g>
<g style="mix-blend-mode:screen">
<path d="M493.431 34.2102L530.1 65.7185C539.092 73.445 539.427 87.2532 530.82 95.4068L507.305 117.685C499.537 125.044 487.353 124.985 479.656 117.552L459.427 98.0142C451.466 90.326 451.263 77.6348 458.972 69.6953L493.431 34.2102ZM493.431 34.2102L441.516 28.6896C423.952 26.8219 417.255 4.76742 430.814 -6.5517L443.304 -16.9778" stroke="url(#paint4_linear_159_278)" stroke-width="0.75" stroke-miterlimit="10"/>
</g>
<g style="mix-blend-mode:screen">
<path d="M571.345 29.0603L575.378 56.5664C576.295 62.8253 572.898 68.9211 567.092 71.4327V71.4327C557.694 75.4984 555.707 87.9527 563.373 94.7413L570.078 100.679C584.137 113.129 574.437 136.321 555.7 135.054L493.417 130.842L430.328 128.883C417.5 128.484 411.868 112.518 421.608 104.159V104.159C430.755 96.3088 426.43 81.3407 414.504 79.5801L334.224 67.7283C320.301 65.6728 308.666 78.2602 311.808 91.9794L319.533 125.701C322.868 140.261 309.645 153.205 295.159 149.562L202.889 126.356C200.584 125.777 198.194 125.613 195.832 125.872L147.92 131.124C140.129 131.978 133.555 137.304 131.103 144.748L123.618 167.473C120.549 176.793 111.171 182.51 101.48 180.968L60.3984 174.433" stroke="url(#paint5_linear_159_278)" stroke-width="0.75" stroke-miterlimit="10"/>
</g>
<g style="mix-blend-mode:screen">
<path d="M244.14 320.045L312.916 257.583C316.653 254.19 318.968 249.509 319.397 244.48L323.254 199.309C324.686 182.544 306.036 171.612 292.107 181.052L274.583 192.927C262.452 201.149 262.989 219.195 275.589 226.679L318.729 252.304" stroke="url(#paint6_linear_159_278)" stroke-width="0.75" stroke-miterlimit="10"/>
</g>
<g style="mix-blend-mode:screen">
<path d="M118.293 183.643L181.46 138.347C191.07 131.456 204.529 134.362 210.438 144.605L242.055 199.403C245.985 206.215 245.558 214.699 240.963 221.082L235.339 228.895C225.135 243.072 236.732 262.6 254.063 260.423L308.209 253.625C313.949 252.904 319.135 257.105 319.622 262.87V262.87C320.194 269.642 327.114 273.963 333.45 271.504L375.371 255.233C386.047 251.09 383.777 235.363 372.365 234.407V234.407" stroke="url(#paint7_linear_159_278)" stroke-width="0.75" stroke-miterlimit="10"/>
</g>
<g style="mix-blend-mode:screen">
<path d="M275.351 114.855L292.141 86.0145C297.719 76.4332 290.294 64.5181 279.236 65.3033V65.3033C270.61 65.9157 264.666 74.2177 266.865 82.5803L275.351 114.855ZM275.351 114.855L229.944 97.4013C220.061 93.6026 220.541 79.4595 230.659 76.34L237.153 74.3379C245.313 71.822 245.572 60.3657 237.533 57.4839V57.4839" stroke="url(#paint8_linear_159_278)" stroke-width="0.75" stroke-miterlimit="10"/>
</g>
<g style="mix-blend-mode:screen">
<path d="M199.857 85.8368L171.959 81.3491C167.905 80.6971 163.75 81.3081 160.056 83.0992L125.766 99.7261C116.755 104.096 107.525 94.1713 112.535 85.5V85.5C114.347 82.3631 117.693 80.4285 121.316 80.4224L165.731 80.3474" stroke="url(#paint9_linear_159_278)" stroke-width="0.75" stroke-miterlimit="10"/>
</g>
<g style="mix-blend-mode:screen">
<path d="M400.568 59.8099C409.878 64.8956 419.349 53.3621 412.549 45.2194V45.2194C406.683 38.1945 395.247 42.5723 395.572 51.7186V51.7186C395.692 55.1085 397.591 58.1838 400.568 59.8099V59.8099Z" stroke="url(#paint10_linear_159_278)" stroke-width="0.75" stroke-miterlimit="10"/>
</g>
<g style="mix-blend-mode:screen">
<path d="M433.952 307.708L414.215 351.992" stroke="url(#paint11_linear_159_278)" stroke-width="0.75" stroke-miterlimit="10"/>
</g>
<g style="mix-blend-mode:screen">
<path d="M131.012 244.098L113.27 265.193" stroke="url(#paint12_linear_159_278)" stroke-width="0.75" stroke-miterlimit="10"/>
</g>
<g style="mix-blend-mode:screen">
<path d="M537.332 261.203L535.494 271.575C532.156 290.407 556.335 301.055 567.975 285.88V285.88C579.093 271.383 564.397 251.348 547.23 257.599L537.332 261.203ZM537.332 261.203L543.696 235.21C546.613 223.298 559.466 216.792 570.793 221.496L590.059 229.497C599.263 233.319 604.249 243.334 601.75 252.982L588.839 302.835C587.429 308.282 583.788 312.883 578.812 315.509L547.324 332.124C535.151 338.547 532.954 355.06 543.023 364.444L562.093 382.216C576.067 395.239 598.601 383.133 595.456 364.292L586.625 311.387" stroke="url(#paint13_linear_159_278)" stroke-width="0.75" stroke-miterlimit="10"/>
</g>
<g style="mix-blend-mode:screen">
<path d="M476.156 187.194L459.637 157.129C457.315 152.905 453.547 149.661 449.024 147.994L428.604 140.469C413.732 134.988 398.698 148.159 402.175 163.623L411.503 205.106C414.85 219.994 432.967 225.799 444.344 215.629L476.156 187.194ZM476.156 187.194L400.133 132.121C396.248 129.306 391.481 127.982 386.701 128.389L385.833 128.464C371.026 129.726 362.718 146.123 370.459 158.809L418.969 238.311" stroke="url(#paint14_linear_159_278)" stroke-width="0.75" stroke-miterlimit="10"/>
</g>
<g style="mix-blend-mode:screen">
<path d="M456.037 150.579L493.417 130.842" stroke="url(#paint15_linear_159_278)" stroke-width="0.75" stroke-miterlimit="10"/>
</g>
<g style="mix-blend-mode:screen">
<path d="M550.476 160.992L570.67 174.133C578.527 179.245 578.869 190.628 571.334 196.203V196.203C562.343 202.856 549.634 196.259 549.901 185.078L550.476 160.992ZM550.476 160.992V160.992C535.738 153.204 520.421 170.363 529.825 184.126L538.952 197.484C544.782 206.015 543.143 217.584 535.174 224.161L436.546 305.567C434.829 306.984 432.887 308.105 430.8 308.883L341.392 342.207C337.501 343.657 333.255 343.861 329.243 342.789L251.478 322.006C246.751 320.743 242.651 317.791 239.954 313.708L216.454 278.136C211.719 270.969 202.936 267.626 194.634 269.83L158.394 279.453C151.38 281.315 144.086 277.613 141.449 270.852V270.852C137.165 259.871 147.297 248.729 158.635 251.953L208.529 266.141" stroke="url(#paint16_linear_159_278)" stroke-width="0.75" stroke-miterlimit="10"/>
</g>
<g style="mix-blend-mode:screen">
<path d="M603.8 212.109L586.893 184.69L566.676 152.248" stroke="url(#paint17_linear_159_278)" stroke-width="0.75" stroke-miterlimit="10"/>
</g>
<g style="mix-blend-mode:screen">
<path d="M522.434 345.257L499.217 284.915" stroke="url(#paint18_linear_159_278)" stroke-width="0.75" stroke-miterlimit="10"/>
</g>
<g style="mix-blend-mode:screen">
<path d="M395.766 57.1868L305.275 63.4544" stroke="url(#paint19_linear_159_278)" stroke-width="0.75" stroke-miterlimit="10"/>
</g>
</g>
</g>
<defs>
<linearGradient id="paint0_linear_159_278" x1="285.923" y1="473.183" x2="285.923" y2="27.3726" gradientUnits="userSpaceOnUse">
<stop stop-color="#ED3C29"/>
<stop offset="1" stop-color="#FA610A"/>
</linearGradient>
<linearGradient id="paint1_linear_159_278" x1="417.05" y1="362.046" x2="417.05" y2="7.1607" gradientUnits="userSpaceOnUse">
<stop stop-color="#ED3C29"/>
<stop offset="1" stop-color="#FA610A"/>
</linearGradient>
<linearGradient id="paint2_linear_159_278" x1="327.911" y1="341.816" x2="327.911" y2="279.863" gradientUnits="userSpaceOnUse">
<stop stop-color="#ED3C29"/>
<stop offset="1" stop-color="#FA610A"/>
</linearGradient>
<linearGradient id="paint3_linear_159_278" x1="493.465" y1="22.2505" x2="493.465" y2="-9.0967" gradientUnits="userSpaceOnUse">
<stop stop-color="#ED3C29"/>
<stop offset="1" stop-color="#FA610A"/>
</linearGradient>
<linearGradient id="paint4_linear_159_278" x1="470.591" y1="124.679" x2="470.591" y2="-8.78324" gradientUnits="userSpaceOnUse">
<stop stop-color="#ED3C29"/>
<stop offset="1" stop-color="#FA610A"/>
</linearGradient>
<linearGradient id="paint5_linear_159_278" x1="336.29" y1="177.198" x2="336.29" y2="37.6297" gradientUnits="userSpaceOnUse">
<stop stop-color="#ED3C29"/>
<stop offset="1" stop-color="#FA610A"/>
</linearGradient>
<linearGradient id="paint6_linear_159_278" x1="285.398" y1="313.269" x2="285.398" y2="166.535" gradientUnits="userSpaceOnUse">
<stop stop-color="#ED3C29"/>
<stop offset="1" stop-color="#FA610A"/>
</linearGradient>
<linearGradient id="paint7_linear_159_278" x1="268.328" y1="270.133" x2="268.328" y2="133.848" gradientUnits="userSpaceOnUse">
<stop stop-color="#ED3C29"/>
<stop offset="1" stop-color="#FA610A"/>
</linearGradient>
<linearGradient id="paint8_linear_159_278" x1="252.46" y1="112.463" x2="252.46" y2="60.6643" gradientUnits="userSpaceOnUse">
<stop stop-color="#ED3C29"/>
<stop offset="1" stop-color="#FA610A"/>
</linearGradient>
<linearGradient id="paint9_linear_159_278" x1="147.807" y1="112.765" x2="147.807" y2="82.2227" gradientUnits="userSpaceOnUse">
<stop stop-color="#ED3C29"/>
<stop offset="1" stop-color="#FA610A"/>
</linearGradient>
<linearGradient id="paint10_linear_159_278" x1="419.739" y1="81.5647" x2="419.739" y2="27.0456" gradientUnits="userSpaceOnUse">
<stop stop-color="#ED3C29"/>
<stop offset="1" stop-color="#FA610A"/>
</linearGradient>
<linearGradient id="paint11_linear_159_278" x1="424.064" y1="350.145" x2="424.064" y2="310.163" gradientUnits="userSpaceOnUse">
<stop stop-color="#ED3C29"/>
<stop offset="1" stop-color="#FA610A"/>
</linearGradient>
<linearGradient id="paint12_linear_159_278" x1="122.123" y1="264.313" x2="122.123" y2="245.267" gradientUnits="userSpaceOnUse">
<stop stop-color="#ED3C29"/>
<stop offset="1" stop-color="#FA610A"/>
</linearGradient>
<linearGradient id="paint13_linear_159_278" x1="564.186" y1="413.589" x2="564.186" y2="224.177" gradientUnits="userSpaceOnUse">
<stop stop-color="#ED3C29"/>
<stop offset="1" stop-color="#FA610A"/>
</linearGradient>
<linearGradient id="paint14_linear_159_278" x1="414.764" y1="233.702" x2="414.764" y2="133.886" gradientUnits="userSpaceOnUse">
<stop stop-color="#ED3C29"/>
<stop offset="1" stop-color="#FA610A"/>
</linearGradient>
<linearGradient id="paint15_linear_159_278" x1="474.689" y1="149.756" x2="474.689" y2="131.936" gradientUnits="userSpaceOnUse">
<stop stop-color="#ED3C29"/>
<stop offset="1" stop-color="#FA610A"/>
</linearGradient>
<linearGradient id="paint16_linear_159_278" x1="358.494" y1="335.531" x2="358.494" y2="142.683" gradientUnits="userSpaceOnUse">
<stop stop-color="#ED3C29"/>
<stop offset="1" stop-color="#FA610A"/>
</linearGradient>
<linearGradient id="paint17_linear_159_278" x1="585.201" y1="209.613" x2="585.201" y2="155.567" gradientUnits="userSpaceOnUse">
<stop stop-color="#ED3C29"/>
<stop offset="1" stop-color="#FA610A"/>
</linearGradient>
<linearGradient id="paint18_linear_159_278" x1="510.803" y1="342.741" x2="510.803" y2="288.261" gradientUnits="userSpaceOnUse">
<stop stop-color="#ED3C29"/>
<stop offset="1" stop-color="#FA610A"/>
</linearGradient>
<linearGradient id="paint19_linear_159_278" x1="350.429" y1="63.1931" x2="350.429" y2="57.5343" gradientUnits="userSpaceOnUse">
<stop stop-color="#ED3C29"/>
<stop offset="1" stop-color="#FA610A"/>
</linearGradient>
</defs>
</svg>
