<svg width="38" height="38" viewBox="0 0 38 38" fill="none" xmlns="http://www.w3.org/2000/svg">
<path d="M29.4519 22.7966C28.8958 24.7296 27.7937 26.4614 26.2775 27.7845C24.7614 29.1075 22.8957 29.9657 20.9039 30.2561C19.3463 30.4819 17.7591 30.3909 16.2375 29.9885C14.716 29.5861 13.2916 28.8807 12.0497 27.9145C10.8078 26.9484 9.7741 25.7414 9.01064 24.3662C8.24717 22.9909 7.76969 21.4757 7.60685 19.9114C7.48071 18.3411 7.68201 16.7616 8.19804 15.2729C8.71406 13.7843 9.53357 12.4188 10.6048 11.2628C11.676 10.1068 12.9755 9.18546 14.4213 8.55702C15.8671 7.92858 17.4276 7.60671 19.0043 7.61176C20.4817 7.61384 21.9451 7.89729 23.3163 8.44693C23.5322 8.54378 23.7765 8.5566 24.0014 8.48287C24.2263 8.40914 24.4155 8.25417 24.532 8.04833L27.2674 3.01836C27.3263 2.90251 27.3617 2.77617 27.3716 2.64661C27.3815 2.51705 27.3657 2.38681 27.3251 2.26337C27.2845 2.13992 27.2199 2.0257 27.1351 1.92725C27.0502 1.82881 26.9467 1.74808 26.8305 1.68969C23.8932 0.36086 20.6658 -0.199025 17.4522 0.0627743C14.2385 0.324573 11.1445 1.39944 8.46138 3.18614C5.7783 4.97283 3.59452 7.41255 2.11572 10.2755C0.636922 13.1385 -0.0882309 16.3305 0.00856295 19.5508C0.195758 24.3338 2.16339 28.8747 5.52602 32.2838C8.88864 35.693 13.404 37.7249 18.1875 37.9813C23.1984 38.2034 28.0938 36.4361 31.8056 33.065C35.5173 29.6939 37.7441 24.9928 38 19.9874C38 19.6077 38 17.4249 38 16.1912C37.9951 15.941 37.8935 15.7024 37.7164 15.5255C37.5394 15.3485 37.3006 15.247 37.0502 15.2421H19.9541C19.7022 15.2421 19.4606 15.3421 19.2825 15.5201C19.1043 15.6981 19.0043 15.9395 19.0043 16.1912V21.8855C19.0043 22.1372 19.1043 22.3786 19.2825 22.5565C19.4606 22.7345 19.7022 22.8345 19.9541 22.8345H29.4519" fill="white"/>
</svg>
