<svg width="64" height="79" viewBox="0 0 64 79" fill="none" xmlns="http://www.w3.org/2000/svg">
<g clip-path="url(#clip0_159_197)">
<path fill-rule="evenodd" clip-rule="evenodd" d="M16.1172 64.7546L32.2419 79C36.1353 75.5197 44.7941 68.0575 48.8666 64.5487C46.6315 65.2103 44.2666 65.5655 41.8195 65.5655C38.3791 65.5655 35.1011 64.8655 32.1204 63.6C29.1419 64.8655 25.8678 65.5655 22.432 65.5655C20.2504 65.5655 18.134 65.2831 16.1172 64.7546Z" fill="url(#paint0_linear_159_197)"/>
<path d="M41.6575 18.2084C47.8501 18.2084 53.4601 20.724 57.5191 24.7871C61.1314 28.404 63.5187 33.251 64 38.6448H57.5481L57.5477 38.6427H44.775L44.7753 38.6448H38.3239C37.8685 35.0244 36.2085 31.7791 33.7619 29.325C30.8672 26.4241 26.8608 24.6313 22.4321 24.6313C18.0088 24.6313 14.0028 26.4275 11.1058 29.3278C8.20897 32.228 6.41535 36.2386 6.41535 40.6674C6.41535 45.0265 8.14659 48.9772 10.955 51.8667L11.1058 52.0075C14.0028 54.9077 18.0088 56.704 22.4321 56.704C26.8608 56.704 30.8672 54.9114 33.7647 52.0133C36.212 49.5605 37.8698 46.315 38.3239 42.6908H44.7749L44.7748 42.6926H57.5479L57.5481 42.6908H63.9996C63.518 48.0774 61.1307 52.9193 57.5191 56.5364V56.5482C53.4601 60.6119 47.8501 63.1269 41.6575 63.1269C39.3522 63.1269 37.1275 62.7777 35.0337 62.129C36.8508 61.0555 38.5202 59.7573 40.0034 58.2727L40.0166 58.2594C40.5144 57.7612 40.991 57.2414 41.4455 56.7027L41.6575 56.704C46.0809 56.704 50.0868 54.9077 52.9838 52.0075C53.8548 51.138 54.6256 50.1676 55.2777 49.1158H43.2195C42.0814 51.9144 40.3951 54.4325 38.2943 56.5364L38.2825 56.5482C34.2228 60.6119 28.6177 63.1269 22.4321 63.1269C16.2394 63.1269 10.6295 60.6119 6.57099 56.5482L6.39972 56.3626C2.44109 52.3128 0 46.7727 0 40.6674C0 34.4669 2.51212 28.8509 6.57099 24.7871C10.6295 20.724 16.2394 18.2084 22.4321 18.2084C28.6177 18.2084 34.2228 20.724 38.2825 24.7871H38.2943C40.3974 26.8927 42.0852 29.4153 43.2232 32.2198H55.2747C54.6228 31.1684 53.8529 30.198 52.9838 29.3278C50.0868 26.4275 46.0809 24.6313 41.6575 24.6313L41.4565 24.6328C40.9989 24.089 40.5185 23.5654 40.0166 23.0629H40.0034C38.5202 21.5783 36.8508 20.28 35.0337 19.2065C37.1275 18.5578 39.3522 18.2084 41.6575 18.2084ZM23.9505 54.4447C20.9897 50.6393 19.2244 45.8578 19.2244 40.6674C19.2244 35.4758 20.9861 30.6939 23.942 26.8897C26.3125 27.146 28.5028 28 30.3583 29.2983L30.3308 29.3278C27.4339 32.228 25.6398 36.2386 25.6398 40.6674C25.6398 45.1013 27.4302 49.1119 30.3249 52.0133L30.3538 52.0422C28.5007 53.3357 26.3162 54.1876 23.9505 54.4447Z" fill="url(#paint1_linear_159_197)"/>
<path d="M22.4331 14.357C26.393 14.357 29.6031 11.1431 29.6031 7.1785C29.6031 3.21392 26.393 0 22.4331 0C18.4731 0 15.263 3.21392 15.263 7.1785C15.263 11.1431 18.4731 14.357 22.4331 14.357Z" fill="url(#paint2_linear_159_197)"/>
<path d="M41.6575 14.357C45.6174 14.357 48.8276 11.1431 48.8276 7.1785C48.8276 3.21392 45.6174 0 41.6575 0C37.6976 0 34.4875 3.21392 34.4875 7.1785C34.4875 11.1431 37.6976 14.357 41.6575 14.357Z" fill="url(#paint3_linear_159_197)"/>
</g>
<defs>
<linearGradient id="paint0_linear_159_197" x1="32.4919" y1="63.6" x2="32.4919" y2="79" gradientUnits="userSpaceOnUse">
<stop stop-color="#ED3C29"/>
<stop offset="1" stop-color="#FA610A"/>
</linearGradient>
<linearGradient id="paint1_linear_159_197" x1="31.9356" y1="61.254" x2="31.9356" y2="20.6985" gradientUnits="userSpaceOnUse">
<stop stop-color="#ED3C29"/>
<stop offset="1" stop-color="#FA610A"/>
</linearGradient>
<linearGradient id="paint2_linear_159_197" x1="22.523" y1="14.4721" x2="22.523" y2="8.5174e-08" gradientUnits="userSpaceOnUse">
<stop stop-color="#ED3C29"/>
<stop offset="1" stop-color="#FA610A"/>
</linearGradient>
<linearGradient id="paint3_linear_159_197" x1="41.6844" y1="13.1259" x2="41.6844" y2="5.86648e-08" gradientUnits="userSpaceOnUse">
<stop stop-color="#ED3C29"/>
<stop offset="1" stop-color="#FA610A"/>
</linearGradient>
<clipPath id="clip0_159_197">
<rect width="64" height="79" fill="white"/>
</clipPath>
</defs>
</svg>
