<svg width="592" height="200" viewBox="0 0 592 200" fill="none" xmlns="http://www.w3.org/2000/svg">
<path fill-rule="evenodd" clip-rule="evenodd" d="M167.033 157.417L200.237 186.718C208.255 179.56 226.085 164.211 234.471 156.994C229.869 158.355 224.999 159.085 219.96 159.085C212.875 159.085 206.125 157.646 199.987 155.043C193.854 157.646 187.112 159.085 180.036 159.085C175.544 159.085 171.186 158.505 167.033 157.417Z" fill="url(#paint0_linear_588_170)"/>
<path fill-rule="evenodd" clip-rule="evenodd" d="M353.573 66.3526H379.887V145.613H353.573V138.321C348.183 144.662 340.68 147.833 331.062 147.833C320.495 147.833 311.644 143.842 304.51 135.864C297.377 127.885 293.81 117.924 293.81 105.983C293.81 94.0404 297.377 84.0802 304.51 76.1016C311.644 68.1224 320.495 64.1328 331.062 64.1328C340.68 64.1328 348.183 67.3037 353.573 73.6444V66.3526ZM324.881 118.506C327.945 121.677 331.961 123.261 336.928 123.261C341.895 123.261 345.911 121.677 348.976 118.506C352.04 115.335 353.573 111.161 353.573 105.983C353.573 100.804 352.04 96.6296 348.976 93.4598C345.911 90.2889 341.895 88.7037 336.928 88.7037C331.961 88.7037 327.945 90.2889 324.881 93.4598C321.815 96.6296 320.283 100.804 320.283 105.983C320.283 111.161 321.815 115.335 324.881 118.506Z" fill="white"/>
<path fill-rule="evenodd" clip-rule="evenodd" d="M387.909 145.613V29.8923H414.223V145.613H387.909Z" fill="white"/>
<path fill-rule="evenodd" clip-rule="evenodd" d="M263.438 145.613V134.919C268.338 127.069 271.171 117.799 271.171 107.875C271.171 97.9383 268.338 88.6598 263.438 80.8054V66.3525H289.752V145.613H263.438Z" fill="white"/>
<path d="M219.626 61.6804C232.378 61.6804 243.931 66.8544 252.289 75.2118C259.728 82.651 264.644 92.6205 265.635 103.715H252.349C251.412 96.2678 247.992 89.5937 242.95 84.551C236.984 78.5858 228.735 74.8913 219.626 74.8913L219.212 74.8943C218.27 73.7757 217.281 72.6989 216.247 71.6651H216.22C213.166 68.6116 209.728 65.9414 205.986 63.7334C210.298 62.3991 214.879 61.6804 219.626 61.6804ZM265.634 112.036C264.642 123.115 259.726 133.074 252.289 140.514V140.538C243.931 148.897 232.378 154.07 219.626 154.07C214.879 154.07 210.298 153.351 205.986 152.017C209.728 149.809 213.166 147.139 216.22 144.085L216.247 144.058C217.272 143.033 218.254 141.964 219.189 140.856L219.626 140.859C228.735 140.859 236.984 137.164 242.95 131.199C247.999 126.165 251.413 119.49 252.349 112.036H265.634ZM183.163 136.212C177.066 128.385 173.431 118.55 173.431 107.874C173.431 97.1965 177.059 87.361 183.146 79.5361C188.027 80.0635 192.537 81.8201 196.358 84.4903L196.302 84.551C190.336 90.5163 186.642 98.7654 186.642 107.874C186.642 116.994 190.329 125.243 196.29 131.211L196.349 131.27C192.533 133.931 188.035 135.683 183.163 136.212Z" fill="url(#paint1_linear_588_170)"/>
<path d="M180.038 53.759C188.193 53.759 194.803 47.1486 194.803 38.9941C194.803 30.8397 188.193 24.2292 180.038 24.2292C171.884 24.2292 165.273 30.8397 165.273 38.9941C165.273 47.1486 171.884 53.759 180.038 53.759Z" fill="url(#paint2_linear_588_170)"/>
<path d="M219.626 53.759C227.781 53.759 234.391 47.1486 234.391 38.9941C234.391 30.8397 227.781 24.2292 219.626 24.2292C211.472 24.2292 204.862 30.8397 204.862 38.9941C204.862 47.1486 211.472 53.759 219.626 53.759Z" fill="url(#paint3_linear_588_170)"/>
<path fill-rule="evenodd" clip-rule="evenodd" d="M97.947 147.8C86.217 147.8 76.4945 145.317 68.7791 140.349C61.0648 135.383 55.6751 128.672 52.6101 120.217L76.8638 106.109C80.9857 115.937 88.2771 120.851 98.74 120.851C107.406 120.851 111.739 118.394 111.739 113.453C111.739 110.204 109.229 107.589 104.235 105.607C102.148 104.735 97.498 103.255 90.3379 101.195C80.1934 98.2355 72.1613 94.0871 66.2429 88.7504C60.3251 83.4136 57.3659 75.9896 57.3659 66.4784C57.3659 56.2274 61.0384 47.9315 68.3827 41.5901C75.7276 35.2497 84.896 32.0789 95.8863 32.0789C105.187 32.0789 113.43 34.2458 120.616 38.5783C127.802 42.9115 133.298 49.1993 137.102 57.4427L113.324 71.3922C109.837 63.1488 104.077 59.0279 96.045 59.0279C92.6628 59.0279 90.1001 59.7151 88.3568 61.0887C86.6128 62.4891 85.7408 64.2324 85.7408 66.3461C85.7408 68.8034 87.0357 70.8641 89.6246 72.5813C92.2138 74.2724 97.2338 76.2538 104.737 78.4733C109.995 80.3753 114.302 81.9345 117.657 83.1233C120.986 84.3382 124.605 86.2141 128.515 88.8033C129.603 89.5186 130.612 90.2912 131.542 91.1184C129.725 96.369 128.735 102.007 128.735 107.875C128.735 116.596 130.917 124.805 134.761 131.993C133.083 134.44 131.01 136.645 128.541 138.606C120.827 144.735 110.629 147.8 97.947 147.8Z" fill="white"/>
<path fill-rule="evenodd" clip-rule="evenodd" d="M180.036 61.6804C192.774 61.6804 204.316 66.8544 212.676 75.2118H212.701C220.14 82.651 225.056 92.6205 226.046 103.715H212.761C211.824 96.2678 208.405 89.5931 203.367 84.5453C197.406 78.5787 189.156 74.8913 180.036 74.8913C170.928 74.8913 162.678 78.5858 156.713 84.551C150.748 90.5163 147.054 98.7654 147.054 107.874C147.054 116.841 150.619 124.966 156.402 130.91L156.713 131.199C162.678 137.164 170.928 140.859 180.036 140.859C189.156 140.859 197.406 137.172 203.373 131.211C208.413 126.166 211.826 119.49 212.761 112.036H226.046C225.054 123.115 220.139 133.074 212.701 140.514L212.676 140.538C204.316 148.897 192.774 154.07 180.036 154.07C167.284 154.07 155.732 148.897 147.375 140.538L147.022 140.157C138.87 131.827 133.843 120.432 133.843 107.874C133.843 95.1215 139.016 83.5702 147.375 75.2118C155.732 66.8544 167.284 61.6804 180.036 61.6804Z" fill="url(#paint4_linear_588_170)"/>
<path d="M218.274 103.71C214.627 103.71 211.669 100.752 211.669 97.1051C211.669 93.4577 214.627 90.4995 218.274 90.4995H254.771C258.419 90.4995 261.377 93.4577 261.377 97.1051C261.377 100.752 258.419 103.71 254.771 103.71H218.274Z" fill="url(#paint5_linear_588_170)"/>
<path d="M218.274 125.251C214.627 125.251 211.669 122.293 211.669 118.646C211.669 114.998 214.627 112.04 218.274 112.04H254.771C258.419 112.04 261.377 114.998 261.377 118.646C261.377 122.293 258.419 125.251 254.771 125.251H218.274Z" fill="url(#paint6_linear_588_170)"/>
<path d="M491.088 113.04C493.73 119.486 499.648 122.709 508.842 122.709C514.549 122.709 519.357 120.86 523.267 117.161L542.29 130.477C534.469 140.305 523.109 145.219 508.208 145.219C494.787 145.219 484.007 141.309 475.87 133.489C467.838 125.563 463.823 115.576 463.823 103.529C463.823 91.5867 467.786 81.6 475.712 73.5683C483.637 65.5366 493.73 61.5208 505.989 61.5208C517.825 61.5208 527.6 65.4838 535.315 73.4098C543.029 81.3358 546.887 91.2697 546.887 103.212C546.887 106.699 546.517 109.975 545.777 113.04H491.088ZM490.771 94.81H521.207C519.093 87.4124 514.126 83.7136 506.306 83.7136C498.168 83.7136 492.99 87.4124 490.771 94.81Z" fill="white"/>
<path d="M276.196 53.759C284.35 53.759 290.961 47.1486 290.961 38.9941C290.961 30.8397 284.35 24.2292 276.196 24.2292C268.042 24.2292 261.431 30.8397 261.431 38.9941C261.431 47.1486 268.042 53.759 276.196 53.759Z" fill="white"/>
<path fill-rule="evenodd" clip-rule="evenodd" d="M422.245 100.91H455.304C454.485 108.756 456.209 120.463 460.08 127.225H422.245V100.91Z" fill="white"/>
<line x1="30.3262" y1="1.40634" x2="1.31742" y2="1.40634" stroke="url(#paint7_linear_588_170)" stroke-width="1.0744"/>
<line x1="0.780184" y1="29.8779" x2="0.780187" y2="0.869179" stroke="url(#paint8_linear_588_170)" stroke-width="1.0744"/>
<line y1="-0.537199" x2="29.0088" y2="-0.537199" transform="matrix(-1 8.74228e-08 8.74228e-08 1 30.3262 179.219)" stroke="url(#paint9_linear_588_170)" stroke-width="1.0744"/>
<line y1="-0.537199" x2="29.0088" y2="-0.537199" transform="matrix(1.31134e-07 1 1 -1.31134e-07 1.31738 150.21)" stroke="url(#paint10_linear_588_170)" stroke-width="1.0744"/>
<line y1="-0.537199" x2="29.0088" y2="-0.537199" transform="matrix(1 -8.74228e-08 -8.74228e-08 -1 561.079 0.869141)" stroke="url(#paint11_linear_588_170)" stroke-width="1.0744"/>
<line y1="-0.537199" x2="29.0088" y2="-0.537199" transform="matrix(-1.31134e-07 -1 -1 1.31134e-07 590.088 29.8779)" stroke="url(#paint12_linear_588_170)" stroke-width="1.0744"/>
<line x1="561.079" y1="178.682" x2="590.088" y2="178.682" stroke="url(#paint13_linear_588_170)" stroke-width="1.0744"/>
<line x1="590.625" y1="150.21" x2="590.625" y2="179.219" stroke="url(#paint14_linear_588_170)" stroke-width="1.0744"/>
<defs>
<linearGradient id="paint0_linear_588_170" x1="200.684" y1="185.397" x2="200.684" y2="156.799" gradientUnits="userSpaceOnUse">
<stop stop-color="#ED3C29"/>
<stop offset="1" stop-color="#FA610A"/>
</linearGradient>
<linearGradient id="paint1_linear_588_170" x1="219.44" y1="150.218" x2="219.44" y2="66.8021" gradientUnits="userSpaceOnUse">
<stop stop-color="#ED3C29"/>
<stop offset="1" stop-color="#FA610A"/>
</linearGradient>
<linearGradient id="paint2_linear_588_170" x1="180.009" y1="52.5278" x2="180.009" y2="25.8663" gradientUnits="userSpaceOnUse">
<stop stop-color="#ED3C29"/>
<stop offset="1" stop-color="#FA610A"/>
</linearGradient>
<linearGradient id="paint3_linear_588_170" x1="219.597" y1="52.5278" x2="219.597" y2="25.8663" gradientUnits="userSpaceOnUse">
<stop stop-color="#ED3C29"/>
<stop offset="1" stop-color="#FA610A"/>
</linearGradient>
<linearGradient id="paint4_linear_588_170" x1="179.852" y1="150.218" x2="179.852" y2="66.8021" gradientUnits="userSpaceOnUse">
<stop stop-color="#ED3C29"/>
<stop offset="1" stop-color="#FA610A"/>
</linearGradient>
<linearGradient id="paint5_linear_588_170" x1="236.473" y1="103.16" x2="236.473" y2="91.2319" gradientUnits="userSpaceOnUse">
<stop stop-color="#ED3C29"/>
<stop offset="1" stop-color="#FA610A"/>
</linearGradient>
<linearGradient id="paint6_linear_588_170" x1="236.473" y1="124.7" x2="236.473" y2="112.772" gradientUnits="userSpaceOnUse">
<stop stop-color="#ED3C29"/>
<stop offset="1" stop-color="#FA610A"/>
</linearGradient>
<linearGradient id="paint7_linear_588_170" x1="15.851" y1="-0.0891657" x2="15.851" y2="0.813703" gradientUnits="userSpaceOnUse">
<stop stop-color="#ED3C29"/>
<stop offset="1" stop-color="#FA610A"/>
</linearGradient>
<linearGradient id="paint8_linear_588_170" x1="2.27569" y1="15.4027" x2="1.37282" y2="15.4027" gradientUnits="userSpaceOnUse">
<stop stop-color="#ED3C29"/>
<stop offset="1" stop-color="#FA610A"/>
</linearGradient>
<linearGradient id="paint9_linear_588_170" x1="14.4752" y1="0.958305" x2="14.4752" y2="0.055436" gradientUnits="userSpaceOnUse">
<stop stop-color="#ED3C29"/>
<stop offset="1" stop-color="#FA610A"/>
</linearGradient>
<linearGradient id="paint10_linear_588_170" x1="14.4752" y1="0.958305" x2="14.4752" y2="0.055436" gradientUnits="userSpaceOnUse">
<stop stop-color="#ED3C29"/>
<stop offset="1" stop-color="#FA610A"/>
</linearGradient>
<linearGradient id="paint11_linear_588_170" x1="14.4752" y1="0.958305" x2="14.4752" y2="0.055436" gradientUnits="userSpaceOnUse">
<stop stop-color="#ED3C29"/>
<stop offset="1" stop-color="#FA610A"/>
</linearGradient>
<linearGradient id="paint12_linear_588_170" x1="14.4752" y1="0.958305" x2="14.4752" y2="0.055436" gradientUnits="userSpaceOnUse">
<stop stop-color="#ED3C29"/>
<stop offset="1" stop-color="#FA610A"/>
</linearGradient>
<linearGradient id="paint13_linear_588_170" x1="575.554" y1="180.178" x2="575.554" y2="179.275" gradientUnits="userSpaceOnUse">
<stop stop-color="#ED3C29"/>
<stop offset="1" stop-color="#FA610A"/>
</linearGradient>
<linearGradient id="paint14_linear_588_170" x1="589.129" y1="164.686" x2="590.032" y2="164.686" gradientUnits="userSpaceOnUse">
<stop stop-color="#ED3C29"/>
<stop offset="1" stop-color="#FA610A"/>
</linearGradient>
</defs>
</svg>
