<svg width="128" height="158" viewBox="0 0 128 158" fill="none" xmlns="http://www.w3.org/2000/svg">
<g clip-path="url(#clip0_179_57)">
<path fill-rule="evenodd" clip-rule="evenodd" d="M32.2344 129.509L64.4838 158C72.2707 151.039 89.5882 136.115 97.7331 129.097C93.2631 130.42 88.5331 131.131 83.639 131.131C76.7582 131.131 70.2022 129.731 64.2409 127.2C58.2838 129.731 51.7357 131.131 44.8641 131.131C40.5008 131.131 36.2681 130.566 32.2344 129.509Z" fill="url(#paint0_linear_179_57)"/>
<path d="M83.315 36.4168C95.7003 36.4168 106.92 41.448 115.038 49.5743C122.263 56.8081 127.037 66.5021 128 77.2898H115.096L115.095 77.2854H89.5501L89.5506 77.2898H76.6477C75.737 70.0488 72.4171 63.5583 67.5237 58.6501C61.7344 52.8483 53.7216 49.2627 44.8641 49.2627C36.0176 49.2627 28.0055 52.8552 22.2116 58.6557C16.4179 64.4562 12.8307 72.4774 12.8307 81.3348C12.8307 90.0531 16.2932 97.9545 21.91 103.733L22.2116 104.015C28.0055 109.816 36.0176 113.408 44.8641 113.408C53.7216 113.408 61.7344 109.823 67.5293 104.027C72.424 99.121 75.7396 92.63 76.6477 85.3817H89.5498L89.5496 85.3853H115.096L115.096 85.3817H127.999C127.036 96.1549 122.261 105.839 115.038 113.073V113.096C106.92 121.224 95.7003 126.254 83.315 126.254C78.7045 126.254 74.2551 125.556 70.0673 124.258C73.7016 122.111 77.0403 119.515 80.0068 116.545L80.0332 116.519C81.0288 115.522 81.982 114.483 82.8909 113.405L83.315 113.408C92.1618 113.408 100.174 109.816 105.968 104.015C107.71 102.276 109.251 100.335 110.555 98.2316H86.439C84.1627 103.829 80.7902 108.865 76.5885 113.073L76.5649 113.096C68.4456 121.224 57.2354 126.254 44.8641 126.254C32.4789 126.254 21.259 121.224 13.142 113.096L12.7994 112.725C4.88219 104.626 0 93.5454 0 81.3348C0 68.934 5.02423 57.7019 13.142 49.5743C21.259 41.448 32.4789 36.4168 44.8641 36.4168C57.2354 36.4168 68.4456 41.448 76.5649 49.5743H76.5885C80.7948 53.7855 84.1704 58.8307 86.4464 64.4396H110.549C109.246 62.3369 107.706 60.3961 105.968 58.6557C100.174 52.8552 92.1618 49.2627 83.315 49.2627L82.913 49.2657C81.9977 48.1781 81.037 47.131 80.0332 46.1258H80.0068C77.0403 43.1566 73.7016 40.5601 70.0673 38.4132C74.2551 37.1157 78.7045 36.4168 83.315 36.4168ZM47.901 108.889C41.9795 101.279 38.4489 91.7157 38.4489 81.3348C38.4489 70.9517 41.9721 61.388 47.8839 53.7794C52.6251 54.292 57.0057 56.0001 60.7167 58.5966L60.6615 58.6557C54.8679 64.4562 51.2796 72.4774 51.2796 81.3348C51.2796 90.2027 54.8605 98.224 60.6498 104.027L60.7075 104.085C57.0013 106.672 52.6325 108.375 47.901 108.889Z" fill="url(#paint1_linear_179_57)"/>
<path d="M44.8661 28.7141C52.7859 28.7141 59.2062 22.2862 59.2062 14.3571C59.2062 6.42794 52.7859 9.15527e-05 44.8661 9.15527e-05C36.9463 9.15527e-05 30.526 6.42794 30.526 14.3571C30.526 22.2862 36.9463 28.7141 44.8661 28.7141Z" fill="url(#paint2_linear_179_57)"/>
<path d="M83.3151 28.7141C91.2349 28.7141 97.6552 22.2862 97.6552 14.3571C97.6552 6.42794 91.2349 9.15527e-05 83.3151 9.15527e-05C75.3953 9.15527e-05 68.975 6.42794 68.975 14.3571C68.975 22.2862 75.3953 28.7141 83.3151 28.7141Z" fill="url(#paint3_linear_179_57)"/>
</g>
<defs>
<linearGradient id="paint0_linear_179_57" x1="64.9837" y1="127.2" x2="64.9837" y2="158" gradientUnits="userSpaceOnUse">
<stop stop-color="#ED3C29"/>
<stop offset="1" stop-color="#FA610A"/>
</linearGradient>
<linearGradient id="paint1_linear_179_57" x1="63.8712" y1="122.508" x2="63.8712" y2="41.397" gradientUnits="userSpaceOnUse">
<stop stop-color="#ED3C29"/>
<stop offset="1" stop-color="#FA610A"/>
</linearGradient>
<linearGradient id="paint2_linear_179_57" x1="45.046" y1="28.9443" x2="45.046" y2="9.17231e-05" gradientUnits="userSpaceOnUse">
<stop stop-color="#ED3C29"/>
<stop offset="1" stop-color="#FA610A"/>
</linearGradient>
<linearGradient id="paint3_linear_179_57" x1="83.3688" y1="26.2518" x2="83.3688" y2="9.16701e-05" gradientUnits="userSpaceOnUse">
<stop stop-color="#ED3C29"/>
<stop offset="1" stop-color="#FA610A"/>
</linearGradient>
<clipPath id="clip0_179_57">
<rect width="128" height="158" fill="white"/>
</clipPath>
</defs>
</svg>
