<svg width="41" height="44" viewBox="0 0 41 44" fill="none" xmlns="http://www.w3.org/2000/svg">
<path d="M30.0041 28.4249C35.1621 25.5925 39.0728 23.4345 39.4098 23.2669C40.4877 22.6933 41.6014 21.1757 39.4098 19.9971C38.7022 19.6264 34.8923 17.5353 30.0041 14.8391L23.2282 21.6822L30.0038 28.4249H30.0041Z" fill="#FFD900"/>
<path d="M23.2282 21.6822L1.65189 43.4279C2.15798 43.4951 2.72978 43.3607 3.4042 42.9901C4.81948 42.2156 19.8221 34.0222 30.0045 28.4264L23.2282 21.6822Z" fill="#F43249"/>
<path d="M23.2281 21.6822L30.0037 14.8723C30.0037 14.8723 4.92169 1.18418 3.40379 0.376499C2.83273 0.0368899 2.1919 -0.0635163 1.61862 0.0368899L23.2281 21.6818V21.6822Z" fill="#00EE76"/>
<path d="M23.2282 21.6824L1.61831 0.0374756C0.741234 0.240134 0 1.01496 0 2.59894V40.8655C0 42.3163 0.573644 43.3609 1.65154 43.4613L23.2278 21.682L23.2282 21.6824Z" fill="#00D3FF"/>
</svg>
