<svg width="35" height="31" viewBox="0 0 35 31" fill="none" xmlns="http://www.w3.org/2000/svg">
<path d="M30.7 6.82222V3.41111C30.7 1.52988 29.1701 0 27.2889 0H5.11667C2.29568 0 0 2.29568 0 5.11667V25.5833C0 29.3373 3.05977 30.7 5.11667 30.7H30.7C32.5812 30.7 34.1111 29.1701 34.1111 27.2889V10.2333C34.1111 8.35211 32.5812 6.82222 30.7 6.82222ZM27.2889 22.1722H23.8778V15.35H27.2889V22.1722ZM5.11667 6.82222C4.1752 6.82222 3.41111 6.05643 3.41111 5.11667C3.41111 4.17691 4.1752 3.41111 5.11667 3.41111H27.2889V6.82222H5.11667Z" fill="white"/>
</svg>
